<svg id="visual" viewBox="0 0 1920 1080" width="1920" height="1080" xmlns="http://www.w3.org/2000/svg" xmlns:xlink="http://www.w3.org/1999/xlink" version="1.1"><rect x="0" y="0" width="1920" height="1080" fill="#001122"></rect><path d="M0 939L45.7 939.5C91.3 940 182.7 941 274.2 915C365.7 889 457.3 836 548.8 820.5C640.3 805 731.7 827 823 832.2C914.3 837.3 1005.7 825.7 1097 799C1188.3 772.3 1279.7 730.7 1371.2 749.5C1462.7 768.3 1554.3 847.7 1645.8 866.7C1737.3 885.7 1828.7 844.3 1874.3 823.7L1920 803L1920 1081L1874.3 1081C1828.7 1081 1737.3 1081 1645.8 1081C1554.3 1081 1462.7 1081 1371.2 1081C1279.7 1081 1188.3 1081 1097 1081C1005.7 1081 914.3 1081 823 1081C731.7 1081 640.3 1081 548.8 1081C457.3 1081 365.7 1081 274.2 1081C182.7 1081 91.3 1081 45.7 1081L0 1081Z" fill="#009473" stroke-linecap="round" stroke-linejoin="miter"></path></svg>